<?xml version="1.0" encoding="UTF-8"?>
<svg width="512" height="512" viewBox="0 0 512 512" xmlns="http://www.w3.org/2000/svg">
  <!-- Brotherhood Icon - Two interlocked B letters on black background -->
  <rect width="512" height="512" fill="#000000"/>
  <g>
    <!-- First B -->
    <path fill="#ffffff" d="M106 64h106c28 0 51 9 66 26 15 17 23 38 23 62 0 19-5 34-15 47-6 8-13 13-21 19 13 4 23 11 32 21 9 13 15 28 15 45 0 25-8 45-23 62-17 17-40 26-70 26H106V64zm87 119c11 0 21-4 28-9 6-6 11-15 11-23 0-11-4-19-11-25-7-6-17-9-28-9H150v66h43zm6 113c13 0 23-4 30-11 6-6 11-17 11-28s-4-21-11-28c-6-6-17-11-30-11H150v77h51z"/>
    <!-- Second B interlocked -->
    <path fill="#ffffff" opacity="0.8" d="M213 139h106c28 0 51 9 66 26 15 17 23 38 23 62 0 19-5 34-15 47-6 8-13 13-21 19 13 4 23 11 32 21 9 13 15 28 15 45 0 25-8 45-23 62-17 17-40 26-70 26H213V139zm87 119c11 0 21-4 28-9 6-6 11-15 11-23 0-11-4-19-11-25-7-6-17-9-28-9H256v66h43zm6 113c13 0 23-4 30-11 6-6 11-17 11-28s-4-21-11-28c-6-6-17-11-30-11H256v77h51z"/>
  </g>
</svg>